<svg xmlns="http://www.w3.org/2000/svg" width="50" height="50" viewBox="0 0 50 50"><g transform="translate(-1810 -857)"><circle cx="25" cy="25" r="25" transform="translate(1810 857)" fill="#f4f4f4"/><g transform="translate(1820 866)"><path d="M26.2,28.646H3.8A.823.823,0,0,1,3.8,27H26.2a.823.823,0,0,1,0,1.646Z" transform="translate(0 -3.646)" fill="#3c3c3c" stroke="#3c3c3c" stroke-width="1"/><path d="M26.2,18.646H3.8A.823.823,0,0,1,3.8,17H26.2a.823.823,0,0,1,0,1.646Z" transform="translate(0 -1.823)" fill="#3c3c3c" stroke="#3c3c3c" stroke-width="1"/><path d="M26.2,8.646H3.8A.823.823,0,0,1,3.8,7H26.2a.823.823,0,0,1,0,1.646Z" transform="translate(0)" fill="#3c3c3c" stroke="#3c3c3c" stroke-width="1"/></g></g></svg>