<svg xmlns="http://www.w3.org/2000/svg" width="50" height="50" viewBox="0 0 50 50"><circle cx="25" cy="25" r="25" fill="#3c3c3c"/><g transform="translate(13 15.5)"><path d="M26.2,28.646H3.8A.823.823,0,0,1,3.8,27H26.2a.823.823,0,0,1,0,1.646Z" transform="translate(-18.28 -0.89) rotate(-45)" fill="#fff" stroke="#fff" stroke-width="1"/><path d="M26.2,18.646H3.8A.823.823,0,0,1,3.8,17H26.2a.823.823,0,0,1,0,1.646Z" transform="translate(13.996 -14.209) rotate(45)" fill="#fff" stroke="#fff" stroke-width="1"/><path d="M3,8.646H3.02s0-.368,0-.823S3.02,7,3.02,7H3s0,.368,0,.823S3,8.646,3,8.646Z" transform="translate(-3.021 -7)" fill="#fff" stroke="#fff" stroke-width="1" opacity="0"/></g></svg>